<svg width="48" height="48" viewBox="0 0 48 48" fill="none" xmlns="http://www.w3.org/2000/svg">
<path d="M22.75 14.3926C23.5594 13.9774 24.5052 13.9683 25.3018 14.3623C25.5456 14.4829 25.7847 14.5978 26.0195 14.709C26.0816 14.7384 26.1435 14.7671 26.2051 14.7959C26.3731 14.8744 26.5397 14.9501 26.7051 15.0244C26.7858 15.0607 26.8659 15.0974 26.9463 15.1328C27.3882 15.3276 27.8254 15.5096 28.2705 15.6836C28.3441 15.7124 28.4181 15.7402 28.4922 15.7686C28.631 15.8217 28.771 15.8738 28.9121 15.9258C29.0137 15.9632 29.1156 16.0012 29.2188 16.0381C29.4392 16.117 29.6631 16.1959 29.8926 16.2734C30.7471 16.5622 31.4152 17.2381 31.6943 18.0977C31.7745 18.3446 31.8557 18.585 31.9375 18.8203C31.9669 18.9051 31.9976 18.9888 32.0273 19.0723C32.0873 19.2404 32.1474 19.4063 32.209 19.5703C32.234 19.637 32.2588 19.7034 32.2842 19.7695C32.4605 20.229 32.645 20.6765 32.8438 21.125C32.878 21.2022 32.9132 21.2791 32.9482 21.3564C33.0283 21.533 33.1103 21.7102 33.1953 21.8887C33.2156 21.9313 33.2362 21.9738 33.2568 22.0166C33.374 22.2597 33.495 22.5061 33.623 22.7568C34.0305 23.5547 34.0451 24.5001 33.6611 25.3174C33.544 25.5666 33.4323 25.8114 33.3252 26.0527C33.2947 26.1215 33.2652 26.1904 33.2354 26.2588C33.1704 26.4076 33.1078 26.5558 33.0459 26.7031C33.0013 26.8093 32.9564 26.9147 32.9131 27.0205C32.8691 27.1281 32.827 27.2361 32.7842 27.3438C32.737 27.4623 32.6886 27.5802 32.6426 27.6992C32.5611 27.9101 32.4821 28.1225 32.4033 28.3369C32.3601 28.4546 32.3172 28.573 32.2744 28.6924C32.2331 28.8077 32.1915 28.9237 32.1504 29.041C32.0267 29.3937 31.9041 29.7567 31.7783 30.1348C31.7656 30.173 31.752 30.2115 31.7393 30.25C31.5118 30.9359 31.0277 31.4667 30.4209 31.7266C30.0504 31.8671 29.6795 32.009 29.292 32.1562C29.1248 32.2198 28.9545 32.2856 28.7793 32.3535C28.6837 32.3906 28.5865 32.4272 28.4883 32.4658C28.2256 32.5692 27.9514 32.6804 27.6602 32.8008L27.626 32.8145C27.1387 33.0163 26.7112 33.1991 26.3115 33.3721C26.2659 33.3918 26.2206 33.4112 26.1758 33.4307C25.7726 33.6057 25.3941 33.7695 25.0088 33.9375C24.3915 34.1963 23.669 34.1815 23.0137 33.8799C23.0043 33.8756 22.9947 33.8715 22.9854 33.8672C22.6552 33.7153 22.3363 33.5698 22.0234 33.4307L21.7549 33.3125C21.7292 33.3012 21.7033 33.2905 21.6777 33.2793C20.9295 32.951 20.2097 32.6504 19.4551 32.3516C19.3642 32.3156 19.2726 32.2801 19.1807 32.2441C18.8347 32.1088 18.4805 31.9724 18.1113 31.834C18.0928 31.827 18.0743 31.8195 18.0557 31.8125C17.3164 31.5359 16.7229 30.9269 16.4316 30.1377L16.375 29.9678C16.2967 29.7139 16.2157 29.467 16.1338 29.2246C16.1097 29.1532 16.0851 29.0823 16.0605 29.0117C16.0043 28.8496 15.9463 28.6898 15.8877 28.5312C15.8563 28.4464 15.8261 28.3614 15.7939 28.2773C15.6217 27.8262 15.4379 27.3852 15.2383 26.9414C15.1962 26.8478 15.153 26.7542 15.1094 26.6602C15.0429 26.5169 14.9744 26.3733 14.9043 26.2285C14.8686 26.1548 14.8336 26.0802 14.7969 26.0059C14.7798 25.9712 14.7634 25.9361 14.7461 25.9014L14.4443 25.3125C14.0107 24.4838 14.0053 23.4961 14.4307 22.6611C14.5462 22.4343 14.6562 22.2109 14.7627 21.9902C14.7861 21.9417 14.809 21.8931 14.832 21.8447C14.9154 21.6696 14.9957 21.4956 15.0742 21.3223C15.104 21.2567 15.134 21.1915 15.1631 21.126C15.3611 20.6803 15.5448 20.236 15.7197 19.7803C15.7444 19.7161 15.7687 19.6516 15.793 19.5869C15.8635 19.3993 15.9328 19.2096 16.001 19.0166C16.0159 18.9744 16.0311 18.9322 16.0459 18.8896C16.1284 18.6531 16.2106 18.412 16.291 18.1641C16.5778 17.2803 17.274 16.5883 18.1631 16.3027C18.4049 16.2251 18.6403 16.1447 18.8721 16.0645C18.9209 16.0476 18.9691 16.0297 19.0176 16.0127C19.2094 15.9452 19.3986 15.8769 19.5859 15.8066C19.6424 15.7855 19.6988 15.7646 19.7549 15.7432C20.2227 15.5642 20.6808 15.3754 21.1426 15.1689C21.2097 15.139 21.2765 15.1079 21.3438 15.0771C21.498 15.0068 21.6525 14.9339 21.8086 14.8594C21.8917 14.8197 21.9757 14.7802 22.0596 14.7393C22.2662 14.6383 22.4757 14.5341 22.6885 14.4248C22.709 14.4143 22.7294 14.4032 22.75 14.3926Z" stroke="#7D01FF" stroke-width="3"/>
<path d="M22.7822 6.39941C23.5621 5.97585 24.4953 5.96346 25.2744 6.36426C28.9904 8.27638 31.7657 9.43718 35.5713 10.6426C36.4124 10.909 37.0693 11.5736 37.3252 12.418C38.5266 16.3832 39.6812 19.1784 41.6211 22.793C42.0085 23.5148 42.0445 24.3752 41.7246 25.1299L41.6562 25.2793C39.8148 28.9861 38.7851 31.8352 37.46 35.9121C37.2433 36.5787 36.7731 37.1093 36.1738 37.3838L36.0527 37.4355C34.4575 38.0569 32.9987 38.5743 31.2129 39.293L30.4258 39.6143C29.3419 40.0632 28.4431 40.4512 27.5928 40.8223L25.0508 41.9297C24.417 42.2015 23.6792 42.1856 23.0244 41.8789C19.1803 40.0784 16.3739 38.9113 12.3896 37.458L12.2441 37.4004C11.526 37.0872 10.9749 36.4525 10.7539 35.6641L10.5479 34.9443C9.50823 31.4032 8.35073 28.724 6.44727 25.2734L6.36914 25.1221C6.03151 24.406 6.02763 23.5745 6.3584 22.8535L6.43457 22.7002C8.3488 19.1406 9.49434 16.3684 10.6631 12.4824C10.9243 11.6142 11.6081 10.9338 12.4795 10.6758C16.0828 9.60897 18.7643 8.53278 22.1045 6.7627L22.7822 6.39941Z" stroke="#7D01FF" stroke-width="3"/>
<line x1="35.5" y1="23.5" x2="45.5" y2="23.5" stroke="#7D01FF" stroke-width="3" stroke-linecap="round"/>
<line x1="2.5" y1="23.5" x2="13.5" y2="23.5" stroke="#7D01FF" stroke-width="3" stroke-linecap="round"/>
<path d="M32 31L39 37.8787" stroke="#7D01FF" stroke-width="3" stroke-linecap="round"/>
<path d="M9.25223 9.2951L15.9852 16.0522" stroke="#7D01FF" stroke-width="3" stroke-linecap="round"/>
<path d="M22.5 46C22.5 46.8284 23.1716 47.5 24 47.5C24.8284 47.5 25.5 46.8284 25.5 46H24H22.5ZM24 34H22.5V46H24H25.5V34H24Z" fill="#7D01FF"/>
<path d="M24 2V13" stroke="#7D01FF" stroke-width="3" stroke-linecap="round"/>
<path d="M15.868 31.868L9.38754 38.6125" stroke="#7D01FF" stroke-width="3" stroke-linecap="round"/>
<path d="M38.5214 9.52145L32 16" stroke="#7D01FF" stroke-width="3" stroke-linecap="round"/>
</svg>
