<?xml version="1.0" encoding="UTF-8" standalone="no"?>
<svg
   width="48"
   height="46"
   fill="none"
   viewBox="0 0 48 46"
   version="1.1"
   id="svg31"
   sodipodi:docname="favicon.svg"
   inkscape:version="1.4.3 (fcd0343856, 2026-01-01)"
   xmlns:inkscape="http://www.inkscape.org/namespaces/inkscape"
   xmlns:sodipodi="http://sodipodi.sourceforge.net/DTD/sodipodi-0.dtd"
   xmlns="http://www.w3.org/2000/svg"
   xmlns:svg="http://www.w3.org/2000/svg">
  <sodipodi:namedview
     id="namedview31"
     pagecolor="#ffffff"
     bordercolor="#000000"
     borderopacity="0.25"
     inkscape:showpageshadow="2"
     inkscape:pageopacity="0.0"
     inkscape:pagecheckerboard="0"
     inkscape:deskcolor="#d1d1d1"
     showgrid="false"
     showguides="true"
     inkscape:zoom="16"
     inkscape:cx="23.40625"
     inkscape:cy="23.15625"
     inkscape:window-width="1920"
     inkscape:window-height="1056"
     inkscape:window-x="0"
     inkscape:window-y="0"
     inkscape:window-maximized="1"
     inkscape:current-layer="svg31">
    <sodipodi:guide
       position="-1.9332509,-25.473424"
       orientation="0,-1"
       id="guide39"
       inkscape:locked="false" />
    <sodipodi:guide
       position="23.028431,32.296662"
       orientation="0,-1"
       id="guide40"
       inkscape:locked="false" />
  </sodipodi:namedview>
  <mask
     id="a"
     width="48"
     height="46"
     x="0"
     y="0"
     maskUnits="userSpaceOnUse"
     style="mask-type:alpha">
    <path
       fill="#000"
       d="M25.842 44.938c-.664.844-2.021.375-2.021-.698V33.937a2.26 2.26 0 0 0-2.262-2.262H10.183c-.92 0-1.456-1.04-.92-1.788l7.48-10.471c1.07-1.498 0-3.579-1.842-3.579H1.133c-.92 0-1.456-1.04-.92-1.787L9.91.473c.214-.297.556-.474.92-.474h28.894c.92 0 1.456 1.04.92 1.788l-7.48 10.471c-1.07 1.498 0 3.578 1.842 3.578h11.377c.943 0 1.473 1.088.89 1.832L25.843 44.94z"
       style="fill:#000;fill-opacity:1"
       id="path2" />
  </mask>
  <defs
     id="defs31">
    <filter
       id="b"
       width="60.045"
       height="41.654"
       x="-19.77"
       y="16.149"
       color-interpolation-filters="sRGB"
       filterUnits="userSpaceOnUse">
      <feFlood
         flood-opacity="0"
         result="BackgroundImageFix"
         id="feFlood17" />
      <feBlend
         in="SourceGraphic"
         in2="BackgroundImageFix"
         result="shape"
         id="feBlend17" />
      <feGaussianBlur
         result="effect1_foregroundBlur_2002_17158"
         stdDeviation="7.659"
         id="feGaussianBlur17" />
    </filter>
    <filter
       id="c"
       width="90.34"
       height="51.437"
       x="-54.613"
       y="-7.533"
       color-interpolation-filters="sRGB"
       filterUnits="userSpaceOnUse">
      <feFlood
         flood-opacity="0"
         result="BackgroundImageFix"
         id="feFlood18" />
      <feBlend
         in="SourceGraphic"
         in2="BackgroundImageFix"
         result="shape"
         id="feBlend18" />
      <feGaussianBlur
         result="effect1_foregroundBlur_2002_17158"
         stdDeviation="7.659"
         id="feGaussianBlur18" />
    </filter>
    <filter
       id="d"
       width="79.355"
       height="29.4"
       x="-49.64"
       y="2.03"
       color-interpolation-filters="sRGB"
       filterUnits="userSpaceOnUse">
      <feFlood
         flood-opacity="0"
         result="BackgroundImageFix"
         id="feFlood19" />
      <feBlend
         in="SourceGraphic"
         in2="BackgroundImageFix"
         result="shape"
         id="feBlend19" />
      <feGaussianBlur
         result="effect1_foregroundBlur_2002_17158"
         stdDeviation="4.596"
         id="feGaussianBlur19" />
    </filter>
    <filter
       id="e"
       width="79.579"
       height="29.4"
       x="-45.045"
       y="20.029"
       color-interpolation-filters="sRGB"
       filterUnits="userSpaceOnUse">
      <feFlood
         flood-opacity="0"
         result="BackgroundImageFix"
         id="feFlood20" />
      <feBlend
         in="SourceGraphic"
         in2="BackgroundImageFix"
         result="shape"
         id="feBlend20" />
      <feGaussianBlur
         result="effect1_foregroundBlur_2002_17158"
         stdDeviation="4.596"
         id="feGaussianBlur20" />
    </filter>
    <filter
       id="f"
       width="79.579"
       height="29.4"
       x="-43.513"
       y="21.178"
       color-interpolation-filters="sRGB"
       filterUnits="userSpaceOnUse">
      <feFlood
         flood-opacity="0"
         result="BackgroundImageFix"
         id="feFlood21" />
      <feBlend
         in="SourceGraphic"
         in2="BackgroundImageFix"
         result="shape"
         id="feBlend21" />
      <feGaussianBlur
         result="effect1_foregroundBlur_2002_17158"
         stdDeviation="4.596"
         id="feGaussianBlur21" />
    </filter>
    <filter
       id="g"
       width="74.749"
       height="58.852"
       x="15.756"
       y="-17.901"
       color-interpolation-filters="sRGB"
       filterUnits="userSpaceOnUse">
      <feFlood
         flood-opacity="0"
         result="BackgroundImageFix"
         id="feFlood22" />
      <feBlend
         in="SourceGraphic"
         in2="BackgroundImageFix"
         result="shape"
         id="feBlend22" />
      <feGaussianBlur
         result="effect1_foregroundBlur_2002_17158"
         stdDeviation="7.659"
         id="feGaussianBlur22" />
    </filter>
    <filter
       id="h"
       width="61.377"
       height="25.362"
       x="23.548"
       y="2.284"
       color-interpolation-filters="sRGB"
       filterUnits="userSpaceOnUse">
      <feFlood
         flood-opacity="0"
         result="BackgroundImageFix"
         id="feFlood23" />
      <feBlend
         in="SourceGraphic"
         in2="BackgroundImageFix"
         result="shape"
         id="feBlend23" />
      <feGaussianBlur
         result="effect1_foregroundBlur_2002_17158"
         stdDeviation="4.596"
         id="feGaussianBlur23" />
    </filter>
    <filter
       id="i"
       width="61.377"
       height="25.362"
       x="23.548"
       y="2.284"
       color-interpolation-filters="sRGB"
       filterUnits="userSpaceOnUse">
      <feFlood
         flood-opacity="0"
         result="BackgroundImageFix"
         id="feFlood24" />
      <feBlend
         in="SourceGraphic"
         in2="BackgroundImageFix"
         result="shape"
         id="feBlend24" />
      <feGaussianBlur
         result="effect1_foregroundBlur_2002_17158"
         stdDeviation="4.596"
         id="feGaussianBlur24" />
    </filter>
    <filter
       id="j"
       width="56.045"
       height="63.649"
       x="-27.636"
       y="-22.853"
       color-interpolation-filters="sRGB"
       filterUnits="userSpaceOnUse">
      <feFlood
         flood-opacity="0"
         result="BackgroundImageFix"
         id="feFlood25" />
      <feBlend
         in="SourceGraphic"
         in2="BackgroundImageFix"
         result="shape"
         id="feBlend25" />
      <feGaussianBlur
         result="effect1_foregroundBlur_2002_17158"
         stdDeviation="4.596"
         id="feGaussianBlur25" />
    </filter>
    <filter
       id="k"
       width="54.814"
       height="64.646"
       x="20.116"
       y="-38.415"
       color-interpolation-filters="sRGB"
       filterUnits="userSpaceOnUse">
      <feFlood
         flood-opacity="0"
         result="BackgroundImageFix"
         id="feFlood26" />
      <feBlend
         in="SourceGraphic"
         in2="BackgroundImageFix"
         result="shape"
         id="feBlend26" />
      <feGaussianBlur
         result="effect1_foregroundBlur_2002_17158"
         stdDeviation="4.596"
         id="feGaussianBlur26" />
    </filter>
    <filter
       id="l"
       width="33.541"
       height="35.313"
       x="24.641"
       y="-11.323"
       color-interpolation-filters="sRGB"
       filterUnits="userSpaceOnUse">
      <feFlood
         flood-opacity="0"
         result="BackgroundImageFix"
         id="feFlood27" />
      <feBlend
         in="SourceGraphic"
         in2="BackgroundImageFix"
         result="shape"
         id="feBlend27" />
      <feGaussianBlur
         result="effect1_foregroundBlur_2002_17158"
         stdDeviation="4.596"
         id="feGaussianBlur27" />
    </filter>
    <filter
       id="m"
       width="54.814"
       height="64.646"
       x="-29.286"
       y="6.009"
       color-interpolation-filters="sRGB"
       filterUnits="userSpaceOnUse">
      <feFlood
         flood-opacity="0"
         result="BackgroundImageFix"
         id="feFlood28" />
      <feBlend
         in="SourceGraphic"
         in2="BackgroundImageFix"
         result="shape"
         id="feBlend28" />
      <feGaussianBlur
         result="effect1_foregroundBlur_2002_17158"
         stdDeviation="4.596"
         id="feGaussianBlur28" />
    </filter>
    <filter
       id="n"
       width="54.814"
       height="64.646"
       x="-29.286"
       y="6.009"
       color-interpolation-filters="sRGB"
       filterUnits="userSpaceOnUse">
      <feFlood
         flood-opacity="0"
         result="BackgroundImageFix"
         id="feFlood29" />
      <feBlend
         in="SourceGraphic"
         in2="BackgroundImageFix"
         result="shape"
         id="feBlend29" />
      <feGaussianBlur
         result="effect1_foregroundBlur_2002_17158"
         stdDeviation="4.596"
         id="feGaussianBlur29" />
    </filter>
    <filter
       id="o"
       width="54.814"
       height="64.646"
       x="8.244"
       y="-2.416"
       color-interpolation-filters="sRGB"
       filterUnits="userSpaceOnUse">
      <feFlood
         flood-opacity="0"
         result="BackgroundImageFix"
         id="feFlood30" />
      <feBlend
         in="SourceGraphic"
         in2="BackgroundImageFix"
         result="shape"
         id="feBlend30" />
      <feGaussianBlur
         result="effect1_foregroundBlur_2002_17158"
         stdDeviation="4.596"
         id="feGaussianBlur30" />
    </filter>
    <filter
       id="p"
       width="39.409"
       height="43.623"
       x="18.713"
       y="10.588"
       color-interpolation-filters="sRGB"
       filterUnits="userSpaceOnUse">
      <feFlood
         flood-opacity="0"
         result="BackgroundImageFix"
         id="feFlood31" />
      <feBlend
         in="SourceGraphic"
         in2="BackgroundImageFix"
         result="shape"
         id="feBlend31" />
      <feGaussianBlur
         result="effect1_foregroundBlur_2002_17158"
         stdDeviation="4.596"
         id="feGaussianBlur31" />
    </filter>
    <mask
       id="a-6"
       width="48"
       height="46"
       x="0"
       y="0"
       maskUnits="userSpaceOnUse">
      <path
         fill="#000"
         d="m 25.842,44.938 c -0.664,0.844 -2.021,0.375 -2.021,-0.698 V 33.937 A 2.26,2.26 0 0 0 21.559,31.675 H 10.183 c -0.92,0 -1.456,-1.04 -0.92,-1.788 l 7.48,-10.471 c 1.07,-1.498 0,-3.579 -1.842,-3.579 H 1.133 c -0.92,0 -1.456,-1.04 -0.92,-1.787 L 9.91,0.473 c 0.214,-0.297 0.556,-0.474 0.92,-0.474 h 28.894 c 0.92,0 1.456,1.04 0.92,1.788 l -7.48,10.471 c -1.07,1.498 0,3.578 1.842,3.578 h 11.377 c 0.943,0 1.473,1.088 0.89,1.832 L 25.843,44.94 Z"
         style="fill:#000000;fill-opacity:1"
         id="path2-3" />
    </mask>
    <filter
       id="b-7"
       width="60.044998"
       height="41.653999"
       x="-19.77"
       y="16.149"
       color-interpolation-filters="sRGB"
       filterUnits="userSpaceOnUse">
      <feFlood
         flood-opacity="0"
         result="BackgroundImageFix"
         id="feFlood17-5" />
      <feBlend
         in="SourceGraphic"
         in2="BackgroundImageFix"
         result="shape"
         id="feBlend17-3"
         mode="normal" />
      <feGaussianBlur
         result="effect1_foregroundBlur_2002_17158"
         stdDeviation="7.659"
         id="feGaussianBlur17-5" />
    </filter>
    <filter
       id="c-6"
       width="90.339996"
       height="51.437"
       x="-54.612999"
       y="-7.533"
       color-interpolation-filters="sRGB"
       filterUnits="userSpaceOnUse">
      <feFlood
         flood-opacity="0"
         result="BackgroundImageFix"
         id="feFlood18-2" />
      <feBlend
         in="SourceGraphic"
         in2="BackgroundImageFix"
         result="shape"
         id="feBlend18-9"
         mode="normal" />
      <feGaussianBlur
         result="effect1_foregroundBlur_2002_17158"
         stdDeviation="7.659"
         id="feGaussianBlur18-1" />
    </filter>
    <filter
       id="d-2"
       width="79.355003"
       height="29.4"
       x="-49.639999"
       y="2.03"
       color-interpolation-filters="sRGB"
       filterUnits="userSpaceOnUse">
      <feFlood
         flood-opacity="0"
         result="BackgroundImageFix"
         id="feFlood19-7" />
      <feBlend
         in="SourceGraphic"
         in2="BackgroundImageFix"
         result="shape"
         id="feBlend19-0"
         mode="normal" />
      <feGaussianBlur
         result="effect1_foregroundBlur_2002_17158"
         stdDeviation="4.596"
         id="feGaussianBlur19-9" />
    </filter>
    <filter
       id="e-3"
       width="79.579002"
       height="29.4"
       x="-45.044998"
       y="20.028999"
       color-interpolation-filters="sRGB"
       filterUnits="userSpaceOnUse">
      <feFlood
         flood-opacity="0"
         result="BackgroundImageFix"
         id="feFlood20-6" />
      <feBlend
         in="SourceGraphic"
         in2="BackgroundImageFix"
         result="shape"
         id="feBlend20-0"
         mode="normal" />
      <feGaussianBlur
         result="effect1_foregroundBlur_2002_17158"
         stdDeviation="4.596"
         id="feGaussianBlur20-6" />
    </filter>
    <filter
       id="f-2"
       width="79.579002"
       height="29.4"
       x="-43.513"
       y="21.177999"
       color-interpolation-filters="sRGB"
       filterUnits="userSpaceOnUse">
      <feFlood
         flood-opacity="0"
         result="BackgroundImageFix"
         id="feFlood21-6" />
      <feBlend
         in="SourceGraphic"
         in2="BackgroundImageFix"
         result="shape"
         id="feBlend21-1"
         mode="normal" />
      <feGaussianBlur
         result="effect1_foregroundBlur_2002_17158"
         stdDeviation="4.596"
         id="feGaussianBlur21-8" />
    </filter>
    <filter
       id="g-7"
       width="74.749001"
       height="58.852001"
       x="15.756"
       y="-17.900999"
       color-interpolation-filters="sRGB"
       filterUnits="userSpaceOnUse">
      <feFlood
         flood-opacity="0"
         result="BackgroundImageFix"
         id="feFlood22-9" />
      <feBlend
         in="SourceGraphic"
         in2="BackgroundImageFix"
         result="shape"
         id="feBlend22-2"
         mode="normal" />
      <feGaussianBlur
         result="effect1_foregroundBlur_2002_17158"
         stdDeviation="7.659"
         id="feGaussianBlur22-0" />
    </filter>
    <filter
       id="h-2"
       width="61.376999"
       height="25.362"
       x="23.548"
       y="2.2839999"
       color-interpolation-filters="sRGB"
       filterUnits="userSpaceOnUse">
      <feFlood
         flood-opacity="0"
         result="BackgroundImageFix"
         id="feFlood23-3" />
      <feBlend
         in="SourceGraphic"
         in2="BackgroundImageFix"
         result="shape"
         id="feBlend23-7"
         mode="normal" />
      <feGaussianBlur
         result="effect1_foregroundBlur_2002_17158"
         stdDeviation="4.596"
         id="feGaussianBlur23-5" />
    </filter>
    <filter
       id="i-9"
       width="61.376999"
       height="25.362"
       x="23.548"
       y="2.2839999"
       color-interpolation-filters="sRGB"
       filterUnits="userSpaceOnUse">
      <feFlood
         flood-opacity="0"
         result="BackgroundImageFix"
         id="feFlood24-2" />
      <feBlend
         in="SourceGraphic"
         in2="BackgroundImageFix"
         result="shape"
         id="feBlend24-2"
         mode="normal" />
      <feGaussianBlur
         result="effect1_foregroundBlur_2002_17158"
         stdDeviation="4.596"
         id="feGaussianBlur24-8" />
    </filter>
    <filter
       id="j-9"
       width="56.044998"
       height="63.648998"
       x="-27.636"
       y="-22.853001"
       color-interpolation-filters="sRGB"
       filterUnits="userSpaceOnUse">
      <feFlood
         flood-opacity="0"
         result="BackgroundImageFix"
         id="feFlood25-7" />
      <feBlend
         in="SourceGraphic"
         in2="BackgroundImageFix"
         result="shape"
         id="feBlend25-3"
         mode="normal" />
      <feGaussianBlur
         result="effect1_foregroundBlur_2002_17158"
         stdDeviation="4.596"
         id="feGaussianBlur25-6" />
    </filter>
    <filter
       id="k-1"
       width="54.813999"
       height="64.646004"
       x="20.115999"
       y="-38.415001"
       color-interpolation-filters="sRGB"
       filterUnits="userSpaceOnUse">
      <feFlood
         flood-opacity="0"
         result="BackgroundImageFix"
         id="feFlood26-2" />
      <feBlend
         in="SourceGraphic"
         in2="BackgroundImageFix"
         result="shape"
         id="feBlend26-9"
         mode="normal" />
      <feGaussianBlur
         result="effect1_foregroundBlur_2002_17158"
         stdDeviation="4.596"
         id="feGaussianBlur26-3" />
    </filter>
    <filter
       id="l-1"
       width="33.541"
       height="35.313"
       x="24.641001"
       y="-11.323"
       color-interpolation-filters="sRGB"
       filterUnits="userSpaceOnUse">
      <feFlood
         flood-opacity="0"
         result="BackgroundImageFix"
         id="feFlood27-9" />
      <feBlend
         in="SourceGraphic"
         in2="BackgroundImageFix"
         result="shape"
         id="feBlend27-4"
         mode="normal" />
      <feGaussianBlur
         result="effect1_foregroundBlur_2002_17158"
         stdDeviation="4.596"
         id="feGaussianBlur27-7" />
    </filter>
    <filter
       id="m-8"
       width="54.813999"
       height="64.646004"
       x="-29.285999"
       y="6.0089998"
       color-interpolation-filters="sRGB"
       filterUnits="userSpaceOnUse">
      <feFlood
         flood-opacity="0"
         result="BackgroundImageFix"
         id="feFlood28-4" />
      <feBlend
         in="SourceGraphic"
         in2="BackgroundImageFix"
         result="shape"
         id="feBlend28-5"
         mode="normal" />
      <feGaussianBlur
         result="effect1_foregroundBlur_2002_17158"
         stdDeviation="4.596"
         id="feGaussianBlur28-0" />
    </filter>
    <filter
       id="n-3"
       width="54.813999"
       height="64.646004"
       x="-29.285999"
       y="6.0089998"
       color-interpolation-filters="sRGB"
       filterUnits="userSpaceOnUse">
      <feFlood
         flood-opacity="0"
         result="BackgroundImageFix"
         id="feFlood29-6" />
      <feBlend
         in="SourceGraphic"
         in2="BackgroundImageFix"
         result="shape"
         id="feBlend29-1"
         mode="normal" />
      <feGaussianBlur
         result="effect1_foregroundBlur_2002_17158"
         stdDeviation="4.596"
         id="feGaussianBlur29-0" />
    </filter>
    <filter
       id="o-6"
       width="54.813999"
       height="64.646004"
       x="8.2440004"
       y="-2.4159999"
       color-interpolation-filters="sRGB"
       filterUnits="userSpaceOnUse">
      <feFlood
         flood-opacity="0"
         result="BackgroundImageFix"
         id="feFlood30-3" />
      <feBlend
         in="SourceGraphic"
         in2="BackgroundImageFix"
         result="shape"
         id="feBlend30-2"
         mode="normal" />
      <feGaussianBlur
         result="effect1_foregroundBlur_2002_17158"
         stdDeviation="4.596"
         id="feGaussianBlur30-0" />
    </filter>
    <filter
       id="p-6"
       width="39.409"
       height="43.623001"
       x="18.712999"
       y="10.588"
       color-interpolation-filters="sRGB"
       filterUnits="userSpaceOnUse">
      <feFlood
         flood-opacity="0"
         result="BackgroundImageFix"
         id="feFlood31-1" />
      <feBlend
         in="SourceGraphic"
         in2="BackgroundImageFix"
         result="shape"
         id="feBlend31-5"
         mode="normal" />
      <feGaussianBlur
         result="effect1_foregroundBlur_2002_17158"
         stdDeviation="4.596"
         id="feGaussianBlur31-5" />
    </filter>
  </defs>
  <g
     id="g39"
     transform="matrix(0.37075992,0,0,0.37075992,-95.402848,-3.8219201)">
    <g
       mask="url(#a-6)"
       id="g35"
       transform="matrix(2.6700363,0,0,2.6700363,79.323425,11.868448)">
      <g
         filter="url(#b)"
         id="g1"
         style="filter:url(#b-7)">
        <path
           id="path1"
           style="fill:#ede6ff"
           transform="matrix(0.00324,1,1,-0.00324,-4.47,31.516)"
           d="M 11.016,14.704 A 5.5079999,14.704 0 0 1 5.5079999,29.408001 5.5079999,14.704 0 0 1 0,14.704 5.5079999,14.704 0 0 1 5.5079999,0 5.5079999,14.704 0 0 1 11.016,14.704 Z" />
      </g>
      <g
         filter="url(#c)"
         id="g19"
         style="filter:url(#c-6)">
        <path
           id="path3"
           style="fill:#ede6ff"
           transform="matrix(0.00324,1,1,-0.00324,-39.328,7.883)"
           d="M 20.798,29.851 A 10.399,29.851 0 0 1 10.399,59.702 10.399,29.851 0 0 1 0,29.851 10.399,29.851 0 0 1 10.399,0 10.399,29.851 0 0 1 20.798,29.851 Z" />
      </g>
      <g
         filter="url(#d)"
         id="g20"
         style="filter:url(#d-2)">
        <path
           id="path19"
           style="fill:#7e14ff"
           transform="matrix(0.00324631,0.99999473,0.99999473,-0.00324631,-40.467801,11.321386)"
           d="M 11.016,30.487 A 5.5079999,30.487 0 0 1 5.5079999,60.973999 5.5079999,30.487 0 0 1 0,30.487 5.5079999,30.487 0 0 1 5.5079999,0 5.5079999,30.487 0 0 1 11.016,30.487 Z" />
      </g>
      <g
         filter="url(#e)"
         id="g21"
         style="filter:url(#e-3)">
        <path
           id="path20"
           style="fill:#7e14ff"
           transform="matrix(0.00324631,0.99999473,0.99999473,-0.00324631,-35.87201,29.320651)"
           d="M 11.016,30.599001 A 5.5079999,30.599001 0 0 1 5.5079999,61.198002 5.5079999,30.599001 0 0 1 0,30.599001 5.5079999,30.599001 0 0 1 5.5079999,0 5.5079999,30.599001 0 0 1 11.016,30.599001 Z" />
      </g>
      <g
         filter="url(#f)"
         id="g22"
         style="filter:url(#f-2)">
        <path
           id="path21"
           style="fill:#7e14ff"
           transform="matrix(0.00324,1,1,-0.00324,-34.34,30.47)"
           d="M 11.016,30.599001 A 5.5079999,30.599001 0 0 1 5.5079999,61.198002 5.5079999,30.599001 0 0 1 0,30.599001 5.5079999,30.599001 0 0 1 5.5079999,0 5.5079999,30.599001 0 0 1 11.016,30.599001 Z" />
      </g>
      <g
         filter="url(#g)"
         id="g23"
         style="filter:url(#g-7)">
        <path
           id="path22"
           style="fill:#ede6ff"
           transform="matrix(0.05843522,-0.9982912,-0.9982912,-0.05843522,74.348149,26.862575)"
           d="M 28.143999,22.077999 A 14.072,22.077999 0 0 1 14.072,44.155998 14.072,22.077999 0 0 1 0,22.077999 14.072,22.077999 0 0 1 14.072,0 14.072,22.077999 0 0 1 28.143999,22.077999 Z" />
      </g>
      <g
         filter="url(#h)"
         id="g24"
         style="filter:url(#h-2)">
        <path
           id="path23"
           style="fill:#7e14ff"
           transform="matrix(-0.01729535,-0.99985042,-0.99985042,0.01729535,75.794367,18.063208)"
           d="M 6.9400001,21.500999 A 3.47,21.500999 0 0 1 3.47,43.001999 3.47,21.500999 0 0 1 0,21.500999 3.47,21.500999 0 0 1 3.47,0 3.47,21.500999 0 0 1 6.9400001,21.500999 Z" />
      </g>
      <g
         filter="url(#i)"
         id="g25"
         style="filter:url(#i-9)">
        <path
           id="path24"
           style="fill:#7e14ff"
           transform="matrix(-0.01729535,-0.99985042,-0.99985042,0.01729535,75.794367,18.063208)"
           d="M 6.9400001,21.500999 A 3.47,21.500999 0 0 1 3.47,43.001999 3.47,21.500999 0 0 1 0,21.500999 3.47,21.500999 0 0 1 3.47,0 3.47,21.500999 0 0 1 6.9400001,21.500999 Z" />
      </g>
      <g
         filter="url(#j)"
         id="g26"
         style="filter:url(#j-9)">
        <path
           id="path25"
           style="fill:#7e14ff"
           transform="rotate(39.51,0.387,8.972)"
           d="M 4.7940001,8.9720001 A 4.4070001,29.108 0 0 1 0.38699999,38.08 4.4070001,29.108 0 0 1 -4.0200001,8.9720001 4.4070001,29.108 0 0 1 0.38699999,-20.136 4.4070001,29.108 0 0 1 4.7940001,8.9720001 Z" />
      </g>
      <g
         filter="url(#k)"
         id="g27"
         style="filter:url(#k-1)">
        <path
           id="path26"
           style="fill:#7e14ff"
           transform="rotate(37.892,47.523,-6.092)"
           d="m 51.929999,-6.092 a 4.4070001,29.108 0 0 1 -4.407,29.108 4.4070001,29.108 0 0 1 -4.407,-29.108 4.4070001,29.108 0 0 1 4.407,-29.108 4.4070001,29.108 0 0 1 4.407,29.108 z" />
      </g>
      <g
         filter="url(#l)"
         id="g28"
         style="filter:url(#l-1)">
        <path
           id="path27"
           style="fill:#47bfff"
           transform="rotate(37.892,41.412,6.333)"
           d="m 47.382999,6.3330002 a 5.9710002,9.665 0 0 1 -5.971,9.6649998 5.9710002,9.665 0 0 1 -5.971,-9.6649998 5.9710002,9.665 0 0 1 5.971,-9.665 5.9710002,9.665 0 0 1 5.971,9.665 z" />
      </g>
      <g
         filter="url(#m)"
         id="g29"
         style="filter:url(#m-8)">
        <path
           id="path28"
           style="fill:#7e14ff"
           transform="rotate(37.892,-1.88,38.332)"
           d="m 2.5280001,38.332001 a 4.4070001,29.108 0 0 1 -4.407,29.108 4.4070001,29.108 0 0 1 -4.4070001,-29.108 4.4070001,29.108 0 0 1 4.4070001,-29.1080001 4.4070001,29.108 0 0 1 4.407,29.1080001 z" />
      </g>
      <g
         filter="url(#n)"
         id="g30"
         style="filter:url(#n-3)">
        <path
           id="path29"
           style="fill:#7e14ff"
           transform="rotate(37.892,-1.88,38.332)"
           d="m 2.5280001,38.332001 a 4.4070001,29.108 0 0 1 -4.407,29.108 4.4070001,29.108 0 0 1 -4.4070001,-29.108 4.4070001,29.108 0 0 1 4.4070001,-29.1080001 4.4070001,29.108 0 0 1 4.407,29.1080001 z" />
      </g>
      <g
         filter="url(#o)"
         id="g31"
         style="filter:url(#o-6)">
        <path
           id="path30"
           style="fill:#7e14ff"
           transform="rotate(37.892,35.651,29.907)"
           d="m 40.058001,29.907 a 4.4070001,29.108 0 0 1 -4.407,29.107999 4.4070001,29.108 0 0 1 -4.407,-29.107999 4.4070001,29.108 0 0 1 4.407,-29.10800021 4.4070001,29.108 0 0 1 4.407,29.10800021 z" />
      </g>
      <g
         filter="url(#p)"
         id="g34"
         style="filter:url(#p-6)">
        <path
           id="path34"
           style="fill:#47bfff"
           transform="rotate(37.892,38.418,32.4)"
           d="m 44.388999,32.400002 a 5.9710002,15.297 0 0 1 -5.971,15.296999 5.9710002,15.297 0 0 1 -5.971,-15.296999 5.9710002,15.297 0 0 1 5.971,-15.297 5.9710002,15.297 0 0 1 5.971,15.297 z" />
      </g>
    </g>
    <path
       id="path35"
       style="fill:#7d01ff;stroke-width:30.4328"
       inkscape:transform-center-x="0.024258899"
       inkscape:transform-center-y="1.9945301"
       d="m 190.92974,88.987742 c -10.10929,25.736458 -0.8865,16.158028 -26.43659,27.456038 -25.55011,11.29802 -12.21122,10.89988 -38.23521,1.14123 -26.02399,-9.75865 -16.38273,-0.74327 -27.636134,-25.8421 C 87.368404,66.644077 87.664324,79.791886 97.773616,54.055433 107.88291,28.318977 98.660121,37.897404 124.21023,26.599393 c 25.55009,-11.298013 12.2112,-10.899881 38.23519,-1.141229 26.02399,9.758654 16.38273,0.743271 27.63613,25.842101 11.2534,25.09883 10.95748,11.951021 0.84819,37.687477 z" />
    <path
       id="path36"
       style="fill:#ffffff;stroke-width:25.7823"
       inkscape:transform-center-x="0.020552445"
       inkscape:transform-center-y="1.6897454"
       d="m 183.90843,86.318731 c -8.56449,21.803659 -0.75103,13.688909 -22.3968,23.260469 -21.64577,9.57157 -10.34522,9.23427 -32.39248,0.96684 -22.04727,-8.26743 -13.87928,-0.62969 -23.41304,-21.893161 -9.533768,-21.263469 -9.283079,-10.124783 -0.71859,-31.928438 8.56449,-21.803658 0.75105,-13.688913 22.39683,-23.260472 21.64577,-9.57156 10.34521,-9.234265 32.39247,-0.966837 22.04724,8.267429 13.87928,0.629691 23.41305,21.893161 9.53373,21.263467 9.28304,10.12478 0.71856,31.928438 z" />
    <path
       id="path37"
       style="fill:#7d01ff;stroke-width:20.7483"
       inkscape:transform-center-x="0.016538176"
       inkscape:transform-center-y="1.3598174"
       d="m 176.20769,83.099626 c -6.89224,17.546444 -0.60439,11.016121 -18.02378,18.718814 -17.41937,7.70269 -8.32528,7.43125 -26.06775,0.77806 -17.7425,-6.653199 -11.16933,-0.50675 -18.8416,-17.618472 -7.67226,-17.111728 -7.47054,-8.147896 -0.57827,-25.694338 6.89224,-17.546443 0.60439,-11.016122 18.02378,-18.718811 17.41938,-7.702689 8.32528,-7.431253 26.06776,-0.778059 17.74247,6.653194 11.16932,0.506741 18.84159,17.61847 7.67227,17.111726 7.47052,8.147893 0.57827,25.694336 z" />
    <path
       id="path38"
       style="fill:#ffffff;stroke-width:15.6243"
       inkscape:transform-center-x="0.012453019"
       inkscape:transform-center-y="1.0240008"
       d="m 168.36943,79.82304 c -5.19015,13.213206 -0.45514,8.295602 -13.57265,14.096051 -13.11754,5.800448 -6.2693,5.596043 -19.63013,0.58591 -13.36081,-5.010134 -8.41096,-0.381596 -14.1885,-13.267445 -5.77755,-12.885849 -5.62563,-6.135706 -0.43548,-19.348912 5.19018,-13.213209 0.45516,-8.295603 13.57268,-14.096051 13.11754,-5.800448 6.26929,-5.596044 19.6301,-0.58591 13.36084,5.010133 8.41099,0.381596 14.18852,13.267445 5.77753,12.885846 5.62564,6.135706 0.43546,19.348912 z" />
    <path
       style="fill:none;fill-opacity:1;stroke:#7d01ff;stroke-width:4.54117;stroke-dasharray:none;stroke-opacity:1"
       d="M 143.79791,42.251907 165.3859,90.689935 115.4637,71.260754 164.30649,50.347398 c 0,0 -18.34977,51.271452 -18.88947,49.787282 C 144.87733,98.650502 123.5592,51.561723 123.5592,51.561723 l 49.51742,18.484707 -48.57295,21.857827 z"
       id="path39" />
  </g>
  <g
     mask="url(#a-6)"
     id="g17"
     transform="matrix(0.98994244,0,0,0.98994244,-30.75995,-40.76075)">
    <g
       filter="url(#b)"
       id="g2"
       style="filter:url(#b-7)">
      <path
         id="ellipse2"
         style="fill:#ede6ff"
         transform="matrix(0.00324,1,1,-0.00324,-4.47,31.516)"
         d="M 11.016,14.704 A 5.5079999,14.704 0 0 1 5.5079999,29.408001 5.5079999,14.704 0 0 1 0,14.704 5.5079999,14.704 0 0 1 5.5079999,0 5.5079999,14.704 0 0 1 11.016,14.704 Z" />
    </g>
    <g
       filter="url(#c)"
       id="g3"
       style="filter:url(#c-6)">
      <path
         id="ellipse3"
         style="fill:#ede6ff"
         transform="matrix(0.00324,1,1,-0.00324,-39.328,7.883)"
         d="M 20.798,29.851 A 10.399,29.851 0 0 1 10.399,59.702 10.399,29.851 0 0 1 0,29.851 10.399,29.851 0 0 1 10.399,0 10.399,29.851 0 0 1 20.798,29.851 Z" />
    </g>
    <g
       filter="url(#d)"
       id="g4"
       style="filter:url(#d-2)">
      <path
         id="ellipse4"
         style="fill:#7e14ff"
         transform="matrix(0.00324631,0.99999473,0.99999473,-0.00324631,-40.467801,11.321386)"
         d="M 11.016,30.487 A 5.5079999,30.487 0 0 1 5.5079999,60.973999 5.5079999,30.487 0 0 1 0,30.487 5.5079999,30.487 0 0 1 5.5079999,0 5.5079999,30.487 0 0 1 11.016,30.487 Z" />
    </g>
    <g
       filter="url(#e)"
       id="g5"
       style="filter:url(#e-3)">
      <path
         id="ellipse5"
         style="fill:#7e14ff"
         transform="matrix(0.00324631,0.99999473,0.99999473,-0.00324631,-35.87201,29.320651)"
         d="M 11.016,30.599001 A 5.5079999,30.599001 0 0 1 5.5079999,61.198002 5.5079999,30.599001 0 0 1 0,30.599001 5.5079999,30.599001 0 0 1 5.5079999,0 5.5079999,30.599001 0 0 1 11.016,30.599001 Z" />
    </g>
    <g
       filter="url(#f)"
       id="g6"
       style="filter:url(#f-2)">
      <path
         id="ellipse6"
         style="fill:#7e14ff"
         transform="matrix(0.00324,1,1,-0.00324,-34.34,30.47)"
         d="M 11.016,30.599001 A 5.5079999,30.599001 0 0 1 5.5079999,61.198002 5.5079999,30.599001 0 0 1 0,30.599001 5.5079999,30.599001 0 0 1 5.5079999,0 5.5079999,30.599001 0 0 1 11.016,30.599001 Z" />
    </g>
    <g
       filter="url(#g)"
       id="g7"
       style="filter:url(#g-7)">
      <path
         id="ellipse7"
         style="fill:#ede6ff"
         transform="matrix(0.05843522,-0.9982912,-0.9982912,-0.05843522,74.348149,26.862575)"
         d="M 28.143999,22.077999 A 14.072,22.077999 0 0 1 14.072,44.155998 14.072,22.077999 0 0 1 0,22.077999 14.072,22.077999 0 0 1 14.072,0 14.072,22.077999 0 0 1 28.143999,22.077999 Z" />
    </g>
    <g
       filter="url(#h)"
       id="g8"
       style="filter:url(#h-2)">
      <path
         id="ellipse8"
         style="fill:#7e14ff"
         transform="matrix(-0.01729535,-0.99985042,-0.99985042,0.01729535,75.794367,18.063208)"
         d="M 6.9400001,21.500999 A 3.47,21.500999 0 0 1 3.47,43.001999 3.47,21.500999 0 0 1 0,21.500999 3.47,21.500999 0 0 1 3.47,0 3.47,21.500999 0 0 1 6.9400001,21.500999 Z" />
    </g>
    <g
       filter="url(#i)"
       id="g9"
       style="filter:url(#i-9)">
      <path
         id="ellipse9"
         style="fill:#7e14ff"
         transform="matrix(-0.01729535,-0.99985042,-0.99985042,0.01729535,75.794367,18.063208)"
         d="M 6.9400001,21.500999 A 3.47,21.500999 0 0 1 3.47,43.001999 3.47,21.500999 0 0 1 0,21.500999 3.47,21.500999 0 0 1 3.47,0 3.47,21.500999 0 0 1 6.9400001,21.500999 Z" />
    </g>
    <g
       filter="url(#j)"
       id="g10"
       style="filter:url(#j-9)">
      <path
         id="ellipse10"
         style="fill:#7e14ff"
         transform="rotate(39.51,0.387,8.972)"
         d="M 4.7940001,8.9720001 A 4.4070001,29.108 0 0 1 0.38699999,38.08 4.4070001,29.108 0 0 1 -4.0200001,8.9720001 4.4070001,29.108 0 0 1 0.38699999,-20.136 4.4070001,29.108 0 0 1 4.7940001,8.9720001 Z" />
    </g>
    <g
       filter="url(#k)"
       id="g11"
       style="filter:url(#k-1)">
      <path
         id="ellipse11"
         style="fill:#7e14ff"
         transform="rotate(37.892,47.523,-6.092)"
         d="m 51.929999,-6.092 a 4.4070001,29.108 0 0 1 -4.407,29.108 4.4070001,29.108 0 0 1 -4.407,-29.108 4.4070001,29.108 0 0 1 4.407,-29.108 4.4070001,29.108 0 0 1 4.407,29.108 z" />
    </g>
    <g
       filter="url(#l)"
       id="g12"
       style="filter:url(#l-1)">
      <path
         id="ellipse12"
         style="fill:#47bfff"
         transform="rotate(37.892,41.412,6.333)"
         d="m 47.382999,6.3330002 a 5.9710002,9.665 0 0 1 -5.971,9.6649998 5.9710002,9.665 0 0 1 -5.971,-9.6649998 5.9710002,9.665 0 0 1 5.971,-9.665 5.9710002,9.665 0 0 1 5.971,9.665 z" />
    </g>
    <g
       filter="url(#m)"
       id="g13"
       style="filter:url(#m-8)">
      <path
         id="ellipse13"
         style="fill:#7e14ff"
         transform="rotate(37.892,-1.88,38.332)"
         d="m 2.5280001,38.332001 a 4.4070001,29.108 0 0 1 -4.407,29.108 4.4070001,29.108 0 0 1 -4.4070001,-29.108 4.4070001,29.108 0 0 1 4.4070001,-29.1080001 4.4070001,29.108 0 0 1 4.407,29.1080001 z" />
    </g>
    <g
       filter="url(#n)"
       id="g14"
       style="filter:url(#n-3)">
      <path
         id="ellipse14"
         style="fill:#7e14ff"
         transform="rotate(37.892,-1.88,38.332)"
         d="m 2.5280001,38.332001 a 4.4070001,29.108 0 0 1 -4.407,29.108 4.4070001,29.108 0 0 1 -4.4070001,-29.108 4.4070001,29.108 0 0 1 4.4070001,-29.1080001 4.4070001,29.108 0 0 1 4.407,29.1080001 z" />
    </g>
    <g
       filter="url(#o)"
       id="g15"
       style="filter:url(#o-6)">
      <path
         id="ellipse15"
         style="fill:#7e14ff"
         transform="rotate(37.892,35.651,29.907)"
         d="m 40.058001,29.907 a 4.4070001,29.108 0 0 1 -4.407,29.107999 4.4070001,29.108 0 0 1 -4.407,-29.107999 4.4070001,29.108 0 0 1 4.407,-29.10800021 4.4070001,29.108 0 0 1 4.407,29.10800021 z" />
    </g>
    <g
       filter="url(#p)"
       id="g16"
       style="filter:url(#p-6)">
      <path
         id="ellipse16"
         style="fill:#47bfff"
         transform="rotate(37.892,38.418,32.4)"
         d="m 44.388999,32.400002 a 5.9710002,15.297 0 0 1 -5.971,15.296999 5.9710002,15.297 0 0 1 -5.971,-15.296999 5.9710002,15.297 0 0 1 5.971,-15.297 5.9710002,15.297 0 0 1 5.971,15.297 z" />
    </g>
  </g>
  <path
     id="path31"
     style="fill:#7d01ff;stroke-width:10.611"
     inkscape:transform-center-x="0.022813309"
     inkscape:transform-center-y="1.8756859"
     d="M 23.557276,4.1231058 C 22.472208,4.1554925 21.408419,5.1051309 16.954167,7.0747596 8.0456581,11.014016 11.26032,7.6744069 7.7355304,16.647889 4.2107423,25.62137 4.1075439,21.03682 8.0312468,29.787984 c 3.9237042,8.751162 0.561842,5.608554 9.6355792,9.011084 9.073736,3.402531 4.424442,3.540686 13.332952,-0.398574 8.908503,-3.939256 5.692015,-0.599647 9.216802,-9.57313 C 43.741368,19.853882 43.844566,24.438433 39.920863,15.68727 35.997161,6.9361078 39.35902,10.078717 30.285284,6.6761853 25.748415,4.9749197 24.642345,4.090719 23.557276,4.1231058 Z m 0.09735,2.8432856 c 0.91926,-0.027438 1.85584,0.7223946 5.699428,2.163689 7.687171,2.8825886 4.840223,0.219629 8.164345,7.6335236 3.324108,7.413894 3.235959,3.530288 0.249797,11.132529 -2.986165,7.602242 -0.260824,4.773781 -7.808014,8.111079 -7.547191,3.337302 -3.606986,3.218714 -11.294163,0.336125 -7.687181,-2.88259 -4.840225,-0.21963 -8.164344,-7.633525 C 7.1775513,21.295918 7.2657105,25.179524 10.251875,17.577284 13.23804,9.9750429 10.512696,12.80534 18.05989,9.468042 21.833486,7.7993929 22.735364,6.9938291 23.654624,6.9663914 Z" />
  <g
     id="g47"
     transform="matrix(0.86306185,0,0,0.86306185,-31.068744,-28.473662)">
    <path
       id="path60"
       style="fill:#7d01ff;stroke-width:7.69264"
       inkscape:transform-center-x="0.016538176"
       inkscape:transform-center-y="1.3598174"
       d="m 63.473126,45.979867 c -0.786644,0.02348 -1.557905,0.710748 -4.787109,2.138672 -6.458412,2.855849 -4.128227,0.435888 -6.683594,6.941406 -2.555378,6.505517 -2.629724,3.181047 0.214844,9.525391 2.84457,6.34434 0.40812,4.066464 6.986328,6.533203 6.578197,2.466736 3.205658,2.566785 9.664062,-0.289063 6.458411,-2.85585 4.128228,-0.433935 6.683594,-6.939453 2.55537,-6.505518 2.629726,-3.183002 -0.214844,-9.527344 -2.844571,-6.344344 -0.408131,-4.064512 -6.986328,-6.53125 -3.2891,-1.233368 -4.090309,-1.875042 -4.876953,-1.851562 z m 0.07617,3.207031 c 0.592375,-0.01768 1.197001,0.465753 3.673828,1.394531 4.953664,1.857556 3.11769,0.142365 5.259766,4.919922 2.142077,4.777555 2.08642,2.274901 0.162109,7.173828 -1.924299,4.898927 -0.169756,3.075989 -5.033203,5.226563 -4.863458,2.150573 -2.323683,2.074353 -7.277344,0.216797 -4.953653,-1.857557 -3.119639,-0.142366 -5.261719,-4.919922 -2.142084,-4.777557 -2.084456,-2.274901 -0.160156,-7.173828 1.92431,-4.898929 0.1678,-3.074037 5.03125,-5.22461 2.43173,-1.075287 3.013094,-1.5956 3.605469,-1.613281 z" />
  </g>
  <path
     style="fill:none;stroke:#7d01ff;stroke-width:1.70079"
     d="m -7.318944,-45.194537 -0.05686,-2.672435"
     id="path40" />
  <path
     style="fill:none;stroke:#7d01ff;stroke-width:1.70079"
     d="m -15.408067,7.2679799 -0.05686,-2.672435"
     id="path41" />
  <path
     style="fill:none;stroke:#7d01ff;stroke-width:1.70079"
     d="M 9.66458,-3.3699291 7.734676,-5.2194201"
     id="path42" />
  <path
     style="fill:none;stroke:#7d01ff;stroke-width:1.70079"
     d="m -21.096855,-32.084392 -1.929904,-1.849491"
     id="path43" />
  <path
     style="fill:none;stroke:#7d01ff;stroke-width:1.70079"
     d="M 9.05577,-34.826994 7.206279,-32.89709"
     id="path44" />
  <path
     style="fill:none;stroke:#7d01ff;stroke-width:1.70079"
     d="m -20.568458,-4.4635821 -1.849492,1.929904"
     id="path45" />
  <path
     style="fill:none;stroke:#7d01ff;stroke-width:1.70079"
     d="m -26.411622,-17.912722 -2.672435,0.05686"
     id="path46" />
  <path
     style="fill:none;stroke:#7d01ff;stroke-width:1.70079"
     d="m 15.835598,-19.27737 -2.672436,0.05686"
     id="path47" />
  <path
     style="fill:#7d01ff;fill-opacity:1;stroke:#7d01ff;stroke-width:2.701;stroke-dasharray:none;stroke-opacity:1"
     d="m 23.726055,0.52772807 0.25,12.49999993"
     id="path48" />
  <path
     style="fill:#7d01ff;fill-opacity:1;stroke:#7d01ff;stroke-width:2.701;stroke-dasharray:none;stroke-opacity:1"
     d="m 24.172335,32.652728 0.25,12.5"
     id="path49" />
  <path
     style="fill:#7d01ff;fill-opacity:1;stroke:#7d01ff;stroke-width:2.701;stroke-dasharray:none;stroke-opacity:1"
     d="M 40.378364,5.7699219 31.716306,14.785534"
     id="path50" />
  <path
     style="fill:#7d01ff;fill-opacity:1;stroke:#7d01ff;stroke-width:2.701;stroke-dasharray:none;stroke-opacity:1"
     d="M 16.378364,31.019922 7.7163059,40.035534"
     id="path51" />
  <path
     style="fill:#7d01ff;fill-opacity:1;stroke:#7d01ff;stroke-width:2.701;stroke-dasharray:none;stroke-opacity:1"
     d="M 15.805141,15.296257 6.7895289,6.6341989"
     id="path52" />
  <path
     style="fill:#7d01ff;fill-opacity:1;stroke:#7d01ff;stroke-width:2.701;stroke-dasharray:none;stroke-opacity:1"
     d="M 40.992641,38.983757 31.977029,30.321699"
     id="path53" />
  <path
     style="fill:#7d01ff;fill-opacity:1;stroke:#7d01ff;stroke-width:2.701;stroke-dasharray:none;stroke-opacity:1"
     d="m 47.172335,22.590228 -12.5,0.25"
     id="path54" />
  <path
     style="fill:#7d01ff;fill-opacity:1;stroke:#7d01ff;stroke-width:2.701;stroke-dasharray:none;stroke-opacity:1"
     d="m 13.109835,23.277728 -12.50000008,0.25"
     id="path55" />
</svg>
