<?xml version="1.0" encoding="UTF-8" standalone="no"?>
<svg
   version="1.1"
   id="svg10"
   sodipodi:docname="icons.svg"
   inkscape:version="1.4.3 (fcd0343856, 2026-01-01)"
   xmlns:inkscape="http://www.inkscape.org/namespaces/inkscape"
   xmlns:sodipodi="http://sodipodi.sourceforge.net/DTD/sodipodi-0.dtd"
   xmlns="http://www.w3.org/2000/svg"
   xmlns:svg="http://www.w3.org/2000/svg">
  <defs
     id="defs10">
    <mask
       id="a"
       width="48"
       height="46"
       x="0"
       y="0"
       maskUnits="userSpaceOnUse">
      <path
         fill="#000"
         d="m 25.842,44.938 c -0.664,0.844 -2.021,0.375 -2.021,-0.698 V 33.937 A 2.26,2.26 0 0 0 21.559,31.675 H 10.183 c -0.92,0 -1.456,-1.04 -0.92,-1.788 l 7.48,-10.471 c 1.07,-1.498 0,-3.579 -1.842,-3.579 H 1.133 c -0.92,0 -1.456,-1.04 -0.92,-1.787 L 9.91,0.473 c 0.214,-0.297 0.556,-0.474 0.92,-0.474 h 28.894 c 0.92,0 1.456,1.04 0.92,1.788 l -7.48,10.471 c -1.07,1.498 0,3.578 1.842,3.578 h 11.377 c 0.943,0 1.473,1.088 0.89,1.832 L 25.843,44.94 Z"
         style="fill:#000000;fill-opacity:1"
         id="path2-3" />
    </mask>
    <filter
       id="b"
       width="60.044998"
       height="41.653999"
       x="-19.77"
       y="16.149"
       color-interpolation-filters="sRGB"
       filterUnits="userSpaceOnUse">
      <feFlood
         flood-opacity="0"
         result="BackgroundImageFix"
         id="feFlood17" />
      <feBlend
         in="SourceGraphic"
         in2="BackgroundImageFix"
         result="shape"
         id="feBlend17"
         mode="normal" />
      <feGaussianBlur
         result="effect1_foregroundBlur_2002_17158"
         stdDeviation="7.659"
         id="feGaussianBlur17" />
    </filter>
    <filter
       id="c"
       width="90.339996"
       height="51.437"
       x="-54.612999"
       y="-7.533"
       color-interpolation-filters="sRGB"
       filterUnits="userSpaceOnUse">
      <feFlood
         flood-opacity="0"
         result="BackgroundImageFix"
         id="feFlood18" />
      <feBlend
         in="SourceGraphic"
         in2="BackgroundImageFix"
         result="shape"
         id="feBlend18"
         mode="normal" />
      <feGaussianBlur
         result="effect1_foregroundBlur_2002_17158"
         stdDeviation="7.659"
         id="feGaussianBlur18" />
    </filter>
    <filter
       id="d"
       width="79.355003"
       height="29.4"
       x="-49.639999"
       y="2.03"
       color-interpolation-filters="sRGB"
       filterUnits="userSpaceOnUse">
      <feFlood
         flood-opacity="0"
         result="BackgroundImageFix"
         id="feFlood19" />
      <feBlend
         in="SourceGraphic"
         in2="BackgroundImageFix"
         result="shape"
         id="feBlend19"
         mode="normal" />
      <feGaussianBlur
         result="effect1_foregroundBlur_2002_17158"
         stdDeviation="4.596"
         id="feGaussianBlur19" />
    </filter>
    <filter
       id="e"
       width="79.579002"
       height="29.4"
       x="-45.044998"
       y="20.028999"
       color-interpolation-filters="sRGB"
       filterUnits="userSpaceOnUse">
      <feFlood
         flood-opacity="0"
         result="BackgroundImageFix"
         id="feFlood20" />
      <feBlend
         in="SourceGraphic"
         in2="BackgroundImageFix"
         result="shape"
         id="feBlend20"
         mode="normal" />
      <feGaussianBlur
         result="effect1_foregroundBlur_2002_17158"
         stdDeviation="4.596"
         id="feGaussianBlur20" />
    </filter>
    <filter
       id="f"
       width="79.579002"
       height="29.4"
       x="-43.513"
       y="21.177999"
       color-interpolation-filters="sRGB"
       filterUnits="userSpaceOnUse">
      <feFlood
         flood-opacity="0"
         result="BackgroundImageFix"
         id="feFlood21" />
      <feBlend
         in="SourceGraphic"
         in2="BackgroundImageFix"
         result="shape"
         id="feBlend21"
         mode="normal" />
      <feGaussianBlur
         result="effect1_foregroundBlur_2002_17158"
         stdDeviation="4.596"
         id="feGaussianBlur21" />
    </filter>
    <filter
       id="g"
       width="74.749001"
       height="58.852001"
       x="15.756"
       y="-17.900999"
       color-interpolation-filters="sRGB"
       filterUnits="userSpaceOnUse">
      <feFlood
         flood-opacity="0"
         result="BackgroundImageFix"
         id="feFlood22" />
      <feBlend
         in="SourceGraphic"
         in2="BackgroundImageFix"
         result="shape"
         id="feBlend22"
         mode="normal" />
      <feGaussianBlur
         result="effect1_foregroundBlur_2002_17158"
         stdDeviation="7.659"
         id="feGaussianBlur22" />
    </filter>
    <filter
       id="h"
       width="61.376999"
       height="25.362"
       x="23.548"
       y="2.2839999"
       color-interpolation-filters="sRGB"
       filterUnits="userSpaceOnUse">
      <feFlood
         flood-opacity="0"
         result="BackgroundImageFix"
         id="feFlood23" />
      <feBlend
         in="SourceGraphic"
         in2="BackgroundImageFix"
         result="shape"
         id="feBlend23"
         mode="normal" />
      <feGaussianBlur
         result="effect1_foregroundBlur_2002_17158"
         stdDeviation="4.596"
         id="feGaussianBlur23" />
    </filter>
    <filter
       id="i"
       width="61.376999"
       height="25.362"
       x="23.548"
       y="2.2839999"
       color-interpolation-filters="sRGB"
       filterUnits="userSpaceOnUse">
      <feFlood
         flood-opacity="0"
         result="BackgroundImageFix"
         id="feFlood24" />
      <feBlend
         in="SourceGraphic"
         in2="BackgroundImageFix"
         result="shape"
         id="feBlend24"
         mode="normal" />
      <feGaussianBlur
         result="effect1_foregroundBlur_2002_17158"
         stdDeviation="4.596"
         id="feGaussianBlur24" />
    </filter>
    <filter
       id="j"
       width="56.044998"
       height="63.648998"
       x="-27.636"
       y="-22.853001"
       color-interpolation-filters="sRGB"
       filterUnits="userSpaceOnUse">
      <feFlood
         flood-opacity="0"
         result="BackgroundImageFix"
         id="feFlood25" />
      <feBlend
         in="SourceGraphic"
         in2="BackgroundImageFix"
         result="shape"
         id="feBlend25"
         mode="normal" />
      <feGaussianBlur
         result="effect1_foregroundBlur_2002_17158"
         stdDeviation="4.596"
         id="feGaussianBlur25" />
    </filter>
    <filter
       id="k"
       width="54.813999"
       height="64.646004"
       x="20.115999"
       y="-38.415001"
       color-interpolation-filters="sRGB"
       filterUnits="userSpaceOnUse">
      <feFlood
         flood-opacity="0"
         result="BackgroundImageFix"
         id="feFlood26" />
      <feBlend
         in="SourceGraphic"
         in2="BackgroundImageFix"
         result="shape"
         id="feBlend26"
         mode="normal" />
      <feGaussianBlur
         result="effect1_foregroundBlur_2002_17158"
         stdDeviation="4.596"
         id="feGaussianBlur26" />
    </filter>
    <filter
       id="l"
       width="33.541"
       height="35.313"
       x="24.641001"
       y="-11.323"
       color-interpolation-filters="sRGB"
       filterUnits="userSpaceOnUse">
      <feFlood
         flood-opacity="0"
         result="BackgroundImageFix"
         id="feFlood27" />
      <feBlend
         in="SourceGraphic"
         in2="BackgroundImageFix"
         result="shape"
         id="feBlend27"
         mode="normal" />
      <feGaussianBlur
         result="effect1_foregroundBlur_2002_17158"
         stdDeviation="4.596"
         id="feGaussianBlur27" />
    </filter>
    <filter
       id="m"
       width="54.813999"
       height="64.646004"
       x="-29.285999"
       y="6.0089998"
       color-interpolation-filters="sRGB"
       filterUnits="userSpaceOnUse">
      <feFlood
         flood-opacity="0"
         result="BackgroundImageFix"
         id="feFlood28" />
      <feBlend
         in="SourceGraphic"
         in2="BackgroundImageFix"
         result="shape"
         id="feBlend28"
         mode="normal" />
      <feGaussianBlur
         result="effect1_foregroundBlur_2002_17158"
         stdDeviation="4.596"
         id="feGaussianBlur28" />
    </filter>
    <filter
       id="n"
       width="54.813999"
       height="64.646004"
       x="-29.285999"
       y="6.0089998"
       color-interpolation-filters="sRGB"
       filterUnits="userSpaceOnUse">
      <feFlood
         flood-opacity="0"
         result="BackgroundImageFix"
         id="feFlood29" />
      <feBlend
         in="SourceGraphic"
         in2="BackgroundImageFix"
         result="shape"
         id="feBlend29"
         mode="normal" />
      <feGaussianBlur
         result="effect1_foregroundBlur_2002_17158"
         stdDeviation="4.596"
         id="feGaussianBlur29" />
    </filter>
    <filter
       id="o"
       width="54.813999"
       height="64.646004"
       x="8.2440004"
       y="-2.4159999"
       color-interpolation-filters="sRGB"
       filterUnits="userSpaceOnUse">
      <feFlood
         flood-opacity="0"
         result="BackgroundImageFix"
         id="feFlood30" />
      <feBlend
         in="SourceGraphic"
         in2="BackgroundImageFix"
         result="shape"
         id="feBlend30"
         mode="normal" />
      <feGaussianBlur
         result="effect1_foregroundBlur_2002_17158"
         stdDeviation="4.596"
         id="feGaussianBlur30" />
    </filter>
    <filter
       id="p"
       width="39.409"
       height="43.623001"
       x="18.712999"
       y="10.588"
       color-interpolation-filters="sRGB"
       filterUnits="userSpaceOnUse">
      <feFlood
         flood-opacity="0"
         result="BackgroundImageFix"
         id="feFlood31" />
      <feBlend
         in="SourceGraphic"
         in2="BackgroundImageFix"
         result="shape"
         id="feBlend31"
         mode="normal" />
      <feGaussianBlur
         result="effect1_foregroundBlur_2002_17158"
         stdDeviation="4.596"
         id="feGaussianBlur31" />
    </filter>
  </defs>
  <sodipodi:namedview
     id="namedview10"
     pagecolor="#ffffff"
     bordercolor="#000000"
     borderopacity="0.25"
     inkscape:showpageshadow="2"
     inkscape:pageopacity="0.0"
     inkscape:pagecheckerboard="0"
     inkscape:deskcolor="#d1d1d1"
     showgrid="false"
     inkscape:zoom="2.6657926"
     inkscape:cx="148.73625"
     inkscape:cy="108.5981"
     inkscape:window-width="1920"
     inkscape:window-height="1056"
     inkscape:window-x="0"
     inkscape:window-y="0"
     inkscape:window-maximized="1"
     inkscape:current-layer="svg10" />
  <symbol
     id="bluesky-icon"
     viewBox="0 0 16 17">
    <g
       clip-path="url(#bluesky-clip)"
       id="g1">
      <path
         fill="#08060d"
         d="M7.75 7.735c-.693-1.348-2.58-3.86-4.334-5.097-1.68-1.187-2.32-.981-2.74-.79C.188 2.065.1 2.812.1 3.251s.241 3.602.398 4.13c.52 1.744 2.367 2.333 4.07 2.145-2.495.37-4.71 1.278-1.805 4.512 3.196 3.309 4.38-.71 4.987-2.746.608 2.036 1.307 5.91 4.93 2.746 2.72-2.746.747-4.143-1.747-4.512 1.702.189 3.55-.4 4.07-2.145.156-.528.397-3.691.397-4.13s-.088-1.186-.575-1.406c-.42-.19-1.06-.395-2.741.79-1.755 1.24-3.64 3.752-4.334 5.099"
         id="path1" />
    </g>
    <defs
       id="defs2">
      <clipPath
         id="bluesky-clip">
        <path
           fill="#fff"
           d="M.1.85h15.3v15.3H.1z"
           id="path2" />
      </clipPath>
    </defs>
  </symbol>
  <symbol
     id="discord-icon"
     viewBox="0 0 20 19">
    <path
       fill="#08060d"
       d="M16.224 3.768a14.5 14.5 0 0 0-3.67-1.153c-.158.286-.343.67-.47.976a13.5 13.5 0 0 0-4.067 0c-.128-.306-.317-.69-.476-.976A14.4 14.4 0 0 0 3.868 3.77C1.546 7.28.916 10.703 1.231 14.077a14.7 14.7 0 0 0 4.5 2.306q.545-.748.965-1.587a9.5 9.5 0 0 1-1.518-.74q.191-.14.372-.293c2.927 1.369 6.107 1.369 8.999 0q.183.152.372.294-.723.437-1.52.74.418.838.963 1.588a14.6 14.6 0 0 0 4.504-2.308c.37-3.911-.63-7.302-2.644-10.309m-9.13 8.234c-.878 0-1.599-.82-1.599-1.82 0-.998.705-1.82 1.6-1.82.894 0 1.614.82 1.599 1.82.001 1-.705 1.82-1.6 1.82m5.91 0c-.878 0-1.599-.82-1.599-1.82 0-.998.705-1.82 1.6-1.82.893 0 1.614.82 1.599 1.82 0 1-.706 1.82-1.6 1.82"
       id="path3" />
  </symbol>
  <symbol
     id="documentation-icon"
     viewBox="0 0 21 20">
    <path
       fill="none"
       stroke="#aa3bff"
       stroke-linecap="round"
       stroke-linejoin="round"
       stroke-width="1.35"
       d="m15.5 13.333 1.533 1.322c.645.555.967.833.967 1.178s-.322.623-.967 1.179L15.5 18.333m-3.333-5-1.534 1.322c-.644.555-.966.833-.966 1.178s.322.623.966 1.179l1.534 1.321"
       id="path4" />
    <path
       fill="none"
       stroke="#aa3bff"
       stroke-linecap="round"
       stroke-linejoin="round"
       stroke-width="1.35"
       d="M17.167 10.836v-4.32c0-1.41 0-2.117-.224-2.68-.359-.906-1.118-1.621-2.08-1.96-.599-.21-1.349-.21-2.848-.21-2.623 0-3.935 0-4.983.369-1.684.591-3.013 1.842-3.641 3.428C3 6.449 3 7.684 3 10.154v2.122c0 2.558 0 3.838.706 4.726q.306.383.713.671c.76.536 1.79.64 3.581.66"
       id="path5" />
    <path
       fill="none"
       stroke="#aa3bff"
       stroke-linecap="round"
       stroke-linejoin="round"
       stroke-width="1.35"
       d="M3 10a2.78 2.78 0 0 1 2.778-2.778c.555 0 1.209.097 1.748-.047.48-.129.854-.503.982-.982.145-.54.048-1.194.048-1.749a2.78 2.78 0 0 1 2.777-2.777"
       id="path6" />
  </symbol>
  <symbol
     id="github-icon"
     viewBox="0 0 19 19">
    <path
       fill="#08060d"
       fill-rule="evenodd"
       d="M9.356 1.85C5.05 1.85 1.57 5.356 1.57 9.694a7.84 7.84 0 0 0 5.324 7.44c.387.079.528-.168.528-.376 0-.182-.013-.805-.013-1.454-2.165.467-2.616-.935-2.616-.935-.349-.91-.864-1.143-.864-1.143-.71-.48.051-.48.051-.48.787.051 1.2.805 1.2.805.695 1.194 1.817.857 2.268.649.064-.507.27-.857.49-1.052-1.728-.182-3.545-.857-3.545-3.87 0-.857.31-1.558.8-2.104-.078-.195-.349-1 .077-2.078 0 0 .657-.208 2.14.805a7.5 7.5 0 0 1 1.946-.26c.657 0 1.328.092 1.946.26 1.483-1.013 2.14-.805 2.14-.805.426 1.078.155 1.883.078 2.078.502.546.799 1.247.799 2.104 0 3.013-1.818 3.675-3.558 3.87.284.247.528.714.528 1.454 0 1.052-.012 1.896-.012 2.156 0 .208.142.455.528.377a7.84 7.84 0 0 0 5.324-7.441c.013-4.338-3.48-7.844-7.773-7.844"
       clip-rule="evenodd"
       id="path7" />
  </symbol>
  <symbol
     id="social-icon"
     viewBox="0 0 20 20">
    <path
       fill="none"
       stroke="#aa3bff"
       stroke-linecap="round"
       stroke-linejoin="round"
       stroke-width="1.35"
       d="M12.5 6.667a4.167 4.167 0 1 0-8.334 0 4.167 4.167 0 0 0 8.334 0"
       id="path8" />
    <path
       fill="none"
       stroke="#aa3bff"
       stroke-linecap="round"
       stroke-linejoin="round"
       stroke-width="1.35"
       d="M2.5 16.667a5.833 5.833 0 0 1 8.75-5.053m3.837.474.513 1.035c.07.144.257.282.414.309l.93.155c.596.1.736.536.307.965l-.723.73a.64.64 0 0 0-.152.531l.207.903c.164.715-.213.991-.84.618l-.872-.52a.63.63 0 0 0-.577 0l-.872.52c-.624.373-1.003.094-.84-.618l.207-.903a.64.64 0 0 0-.152-.532l-.723-.729c-.426-.43-.289-.864.306-.964l.93-.156a.64.64 0 0 0 .412-.31l.513-1.034c.28-.562.735-.562 1.012 0"
       id="path9" />
  </symbol>
  <symbol
     id="x-icon"
     viewBox="0 0 19 19">
    <path
       fill="#08060d"
       fill-rule="evenodd"
       d="M1.893 1.98c.052.072 1.245 1.769 2.653 3.77l2.892 4.114c.183.261.333.48.333.486s-.068.089-.152.183l-.522.593-.765.867-3.597 4.087c-.375.426-.734.834-.798.905a1 1 0 0 0-.118.148c0 .01.236.017.664.017h.663l.729-.83c.4-.457.796-.906.879-.999a692 692 0 0 0 1.794-2.038c.034-.037.301-.34.594-.675l.551-.624.345-.392a7 7 0 0 1 .34-.374c.006 0 .93 1.306 2.052 2.903l2.084 2.965.045.063h2.275c1.87 0 2.273-.003 2.266-.021-.008-.02-1.098-1.572-3.894-5.547-2.013-2.862-2.28-3.246-2.273-3.266.008-.019.282-.332 2.085-2.38l2-2.274 1.567-1.782c.022-.028-.016-.03-.65-.03h-.674l-.3.342a871 871 0 0 1-1.782 2.025c-.067.075-.405.458-.75.852a100 100 0 0 1-.803.91c-.148.172-.299.344-.99 1.127-.304.343-.32.358-.345.327-.015-.019-.904-1.282-1.976-2.808L6.365 1.85H1.8zm1.782.91 8.078 11.294c.772 1.08 1.413 1.973 1.425 1.984.016.017.241.02 1.05.017l1.03-.004-2.694-3.766L7.796 5.75 5.722 2.852l-1.039-.004-1.039-.004z"
       clip-rule="evenodd"
       id="path10" />
  </symbol>
  <g
     id="g18">
    <g
       mask="url(#a)"
       id="g17"
       transform="matrix(2.6700363,0,0,2.6700363,79.323425,11.868448)">
      <g
         filter="url(#b)"
         id="g2">
        <path
           id="ellipse2"
           style="fill:#ede6ff"
           transform="matrix(0.00324,1,1,-0.00324,-4.47,31.516)"
           d="M 11.016,14.704 A 5.5079999,14.704 0 0 1 5.5079999,29.408001 5.5079999,14.704 0 0 1 0,14.704 5.5079999,14.704 0 0 1 5.5079999,0 5.5079999,14.704 0 0 1 11.016,14.704 Z" />
      </g>
      <g
         filter="url(#c)"
         id="g3">
        <path
           id="ellipse3"
           style="fill:#ede6ff"
           transform="matrix(0.00324,1,1,-0.00324,-39.328,7.883)"
           d="M 20.798,29.851 A 10.399,29.851 0 0 1 10.399,59.702 10.399,29.851 0 0 1 0,29.851 10.399,29.851 0 0 1 10.399,0 10.399,29.851 0 0 1 20.798,29.851 Z" />
      </g>
      <g
         filter="url(#d)"
         id="g4">
        <path
           id="ellipse4"
           style="fill:#7e14ff"
           transform="matrix(0.00324631,0.99999473,0.99999473,-0.00324631,-40.467801,11.321386)"
           d="M 11.016,30.487 A 5.5079999,30.487 0 0 1 5.5079999,60.973999 5.5079999,30.487 0 0 1 0,30.487 5.5079999,30.487 0 0 1 5.5079999,0 5.5079999,30.487 0 0 1 11.016,30.487 Z" />
      </g>
      <g
         filter="url(#e)"
         id="g5">
        <path
           id="ellipse5"
           style="fill:#7e14ff"
           transform="matrix(0.00324631,0.99999473,0.99999473,-0.00324631,-35.87201,29.320651)"
           d="M 11.016,30.599001 A 5.5079999,30.599001 0 0 1 5.5079999,61.198002 5.5079999,30.599001 0 0 1 0,30.599001 5.5079999,30.599001 0 0 1 5.5079999,0 5.5079999,30.599001 0 0 1 11.016,30.599001 Z" />
      </g>
      <g
         filter="url(#f)"
         id="g6">
        <path
           id="ellipse6"
           style="fill:#7e14ff"
           transform="matrix(0.00324,1,1,-0.00324,-34.34,30.47)"
           d="M 11.016,30.599001 A 5.5079999,30.599001 0 0 1 5.5079999,61.198002 5.5079999,30.599001 0 0 1 0,30.599001 5.5079999,30.599001 0 0 1 5.5079999,0 5.5079999,30.599001 0 0 1 11.016,30.599001 Z" />
      </g>
      <g
         filter="url(#g)"
         id="g7">
        <path
           id="ellipse7"
           style="fill:#ede6ff"
           transform="matrix(0.05843522,-0.9982912,-0.9982912,-0.05843522,74.348149,26.862575)"
           d="M 28.143999,22.077999 A 14.072,22.077999 0 0 1 14.072,44.155998 14.072,22.077999 0 0 1 0,22.077999 14.072,22.077999 0 0 1 14.072,0 14.072,22.077999 0 0 1 28.143999,22.077999 Z" />
      </g>
      <g
         filter="url(#h)"
         id="g8">
        <path
           id="ellipse8"
           style="fill:#7e14ff"
           transform="matrix(-0.01729535,-0.99985042,-0.99985042,0.01729535,75.794367,18.063208)"
           d="M 6.9400001,21.500999 A 3.47,21.500999 0 0 1 3.47,43.001999 3.47,21.500999 0 0 1 0,21.500999 3.47,21.500999 0 0 1 3.47,0 3.47,21.500999 0 0 1 6.9400001,21.500999 Z" />
      </g>
      <g
         filter="url(#i)"
         id="g9">
        <path
           id="ellipse9"
           style="fill:#7e14ff"
           transform="matrix(-0.01729535,-0.99985042,-0.99985042,0.01729535,75.794367,18.063208)"
           d="M 6.9400001,21.500999 A 3.47,21.500999 0 0 1 3.47,43.001999 3.47,21.500999 0 0 1 0,21.500999 3.47,21.500999 0 0 1 3.47,0 3.47,21.500999 0 0 1 6.9400001,21.500999 Z" />
      </g>
      <g
         filter="url(#j)"
         id="g10">
        <path
           id="ellipse10"
           style="fill:#7e14ff"
           transform="rotate(39.51,0.387,8.972)"
           d="M 4.7940001,8.9720001 A 4.4070001,29.108 0 0 1 0.38699999,38.08 4.4070001,29.108 0 0 1 -4.0200001,8.9720001 4.4070001,29.108 0 0 1 0.38699999,-20.136 4.4070001,29.108 0 0 1 4.7940001,8.9720001 Z" />
      </g>
      <g
         filter="url(#k)"
         id="g11">
        <path
           id="ellipse11"
           style="fill:#7e14ff"
           transform="rotate(37.892,47.523,-6.092)"
           d="m 51.929999,-6.092 a 4.4070001,29.108 0 0 1 -4.407,29.108 4.4070001,29.108 0 0 1 -4.407,-29.108 4.4070001,29.108 0 0 1 4.407,-29.108 4.4070001,29.108 0 0 1 4.407,29.108 z" />
      </g>
      <g
         filter="url(#l)"
         id="g12">
        <path
           id="ellipse12"
           style="fill:#47bfff"
           transform="rotate(37.892,41.412,6.333)"
           d="m 47.382999,6.3330002 a 5.9710002,9.665 0 0 1 -5.971,9.6649998 5.9710002,9.665 0 0 1 -5.971,-9.6649998 5.9710002,9.665 0 0 1 5.971,-9.665 5.9710002,9.665 0 0 1 5.971,9.665 z" />
      </g>
      <g
         filter="url(#m)"
         id="g13">
        <path
           id="ellipse13"
           style="fill:#7e14ff"
           transform="rotate(37.892,-1.88,38.332)"
           d="m 2.5280001,38.332001 a 4.4070001,29.108 0 0 1 -4.407,29.108 4.4070001,29.108 0 0 1 -4.4070001,-29.108 4.4070001,29.108 0 0 1 4.4070001,-29.1080001 4.4070001,29.108 0 0 1 4.407,29.1080001 z" />
      </g>
      <g
         filter="url(#n)"
         id="g14">
        <path
           id="ellipse14"
           style="fill:#7e14ff"
           transform="rotate(37.892,-1.88,38.332)"
           d="m 2.5280001,38.332001 a 4.4070001,29.108 0 0 1 -4.407,29.108 4.4070001,29.108 0 0 1 -4.4070001,-29.108 4.4070001,29.108 0 0 1 4.4070001,-29.1080001 4.4070001,29.108 0 0 1 4.407,29.1080001 z" />
      </g>
      <g
         filter="url(#o)"
         id="g15">
        <path
           id="ellipse15"
           style="fill:#7e14ff"
           transform="rotate(37.892,35.651,29.907)"
           d="m 40.058001,29.907 a 4.4070001,29.108 0 0 1 -4.407,29.107999 4.4070001,29.108 0 0 1 -4.407,-29.107999 4.4070001,29.108 0 0 1 4.407,-29.10800021 4.4070001,29.108 0 0 1 4.407,29.10800021 z" />
      </g>
      <g
         filter="url(#p)"
         id="g16">
        <path
           id="ellipse16"
           style="fill:#47bfff"
           transform="rotate(37.892,38.418,32.4)"
           d="m 44.388999,32.400002 a 5.9710002,15.297 0 0 1 -5.971,15.296999 5.9710002,15.297 0 0 1 -5.971,-15.296999 5.9710002,15.297 0 0 1 5.971,-15.297 5.9710002,15.297 0 0 1 5.971,15.297 z" />
      </g>
    </g>
    <path
       id="path31"
       style="fill:#7d01ff;stroke-width:30.4328"
       inkscape:transform-center-x="0.024258899"
       inkscape:transform-center-y="1.9945301"
       d="m 190.92974,88.987742 c -10.10929,25.736458 -0.8865,16.158028 -26.43659,27.456038 -25.55011,11.29802 -12.21122,10.89988 -38.23521,1.14123 -26.02399,-9.75865 -16.38273,-0.74327 -27.636134,-25.8421 C 87.368404,66.644077 87.664324,79.791886 97.773616,54.055433 107.88291,28.318977 98.660121,37.897404 124.21023,26.599393 c 25.55009,-11.298013 12.2112,-10.899881 38.23519,-1.141229 26.02399,9.758654 16.38273,0.743271 27.63613,25.842101 11.2534,25.09883 10.95748,11.951021 0.84819,37.687477 z" />
    <path
       id="path32"
       style="fill:#ffffff;stroke-width:25.7823"
       inkscape:transform-center-x="0.020552445"
       inkscape:transform-center-y="1.6897454"
       d="m 183.90843,86.318731 c -8.56449,21.803659 -0.75103,13.688909 -22.3968,23.260469 -21.64577,9.57157 -10.34522,9.23427 -32.39248,0.96684 -22.04727,-8.26743 -13.87928,-0.62969 -23.41304,-21.893161 -9.533768,-21.263469 -9.283079,-10.124783 -0.71859,-31.928438 8.56449,-21.803658 0.75105,-13.688913 22.39683,-23.260472 21.64577,-9.57156 10.34521,-9.234265 32.39247,-0.966837 22.04724,8.267429 13.87928,0.629691 23.41305,21.893161 9.53373,21.263467 9.28304,10.12478 0.71856,31.928438 z" />
    <path
       id="path60"
       style="fill:#7d01ff;stroke-width:20.7483"
       inkscape:transform-center-x="0.016538176"
       inkscape:transform-center-y="1.3598174"
       d="m 176.20769,83.099626 c -6.89224,17.546444 -0.60439,11.016121 -18.02378,18.718814 -17.41937,7.70269 -8.32528,7.43125 -26.06775,0.77806 -17.7425,-6.653199 -11.16933,-0.50675 -18.8416,-17.618472 -7.67226,-17.111728 -7.47054,-8.147896 -0.57827,-25.694338 6.89224,-17.546443 0.60439,-11.016122 18.02378,-18.718811 17.41938,-7.702689 8.32528,-7.431253 26.06776,-0.778059 17.74247,6.653194 11.16932,0.506741 18.84159,17.61847 7.67227,17.111726 7.47052,8.147893 0.57827,25.694336 z" />
    <path
       id="path61"
       style="fill:#ffffff;stroke-width:15.6243"
       inkscape:transform-center-x="0.012453019"
       inkscape:transform-center-y="1.0240008"
       d="m 168.36943,79.82304 c -5.19015,13.213206 -0.45514,8.295602 -13.57265,14.096051 -13.11754,5.800448 -6.2693,5.596043 -19.63013,0.58591 -13.36081,-5.010134 -8.41096,-0.381596 -14.1885,-13.267445 -5.77755,-12.885849 -5.62563,-6.135706 -0.43548,-19.348912 5.19018,-13.213209 0.45516,-8.295603 13.57268,-14.096051 13.11754,-5.800448 6.26929,-5.596044 19.6301,-0.58591 13.36084,5.010133 8.41099,0.381596 14.18852,13.267445 5.77753,12.885846 5.62564,6.135706 0.43546,19.348912 z" />
    <path
       style="fill:none;fill-opacity:1;stroke:#7d01ff;stroke-width:4.54117;stroke-dasharray:none;stroke-opacity:1"
       d="M 143.79791,42.251907 165.3859,90.689935 115.4637,71.260754 164.30649,50.347398 c 0,0 -18.34977,51.271452 -18.88947,49.787282 C 144.87733,98.650502 123.5592,51.561723 123.5592,51.561723 l 49.51742,18.484707 -48.57295,21.857827 z"
       id="path33" />
  </g>
</svg>
